<svg width="51" height="65" viewBox="0 0 51 65" fill="none" xmlns="http://www.w3.org/2000/svg">
<path d="M24.9994 18.0715C21.5395 18.0715 18.6 19.109 16.68 20.7352V23.76H33.32V20.7352C31.4 19.109 28.4599 18.0715 24.9994 18.0715ZM40.2768 16.5191L24.9591 9.23999L9.64771 16.5191L12.2 17.7236V19.5762C11.56 19.7129 11.5581 20.0587 11.5581 20.4699C11.5581 20.7128 11.6362 20.9972 11.7847 21.1675L10.9091 23.1H14.0323L13.1645 21.1662C13.3104 20.9959 13.4301 20.7451 13.4301 20.5022C13.4301 20.0917 12.84 19.7122 12.84 19.5756V18.0332L16.04 19.5155V19.3842C17.96 17.6623 21.3335 16.5693 24.9987 16.5693C28.6653 16.5693 32.04 17.6623 33.96 19.3842V19.5155L40.2768 16.5191Z" fill="black"/>
<path fill-rule="evenodd" clip-rule="evenodd" d="M26.4107 41.3214V50.4285C29.6155 50.1407 30.9643 48.3457 30.9643 45.9751C30.9643 43.6919 29.9151 42.3414 26.4107 41.3214ZM23.6786 36.7678V28.5714C20.6978 28.9493 19.125 30.6933 19.125 32.6058C19.125 34.5183 20.3672 35.9272 23.6786 36.7678ZM26.265 37.439L27.2413 37.6913C32.589 38.9744 35.5178 41.2458 35.5178 45.7256C35.5178 50.8784 31.4506 53.8018 26.265 54.1806V57.7142H23.9672V54.1806C18.8017 53.7808 14.7144 50.7737 14.5714 45.7256H18.7807C19.1468 48.1863 20.6932 49.995 23.9672 50.352V41.1838L23.133 40.9735C17.9675 39.7322 15.1816 37.3343 15.1816 33.0648C15.1816 28.3537 18.8427 25.2409 23.9672 24.8411V21.2856H26.265V24.8402C31.3486 25.2609 35.0297 28.4156 35.1927 33.1905H30.9624C30.6983 30.5403 28.8678 29.0049 26.265 28.6679V37.439Z" fill="black"/>
</svg>
