<svg width="234" height="65" viewBox="0 0 234 65" fill="none" xmlns="http://www.w3.org/2000/svg">
<path d="M61.2719 34.1797C61.1725 33.2493 60.7535 32.5249 60.0148 32.0064C59.2833 31.4879 58.3316 31.2287 57.1597 31.2287C56.3358 31.2287 55.6292 31.353 55.0397 31.6016C54.4502 31.8501 53.9992 32.1875 53.6867 32.6136C53.3742 33.0398 53.2144 33.5263 53.2073 34.0732C53.2073 34.5277 53.3103 34.9219 53.5162 35.2557C53.7293 35.5895 54.017 35.8736 54.3792 36.108C54.7414 36.3352 55.1427 36.527 55.583 36.6832C56.0233 36.8395 56.4672 36.9709 56.9147 37.0774L58.9601 37.5888C59.784 37.7805 60.5759 38.0398 61.3358 38.3665C62.1029 38.6932 62.7883 39.1051 63.392 39.6023C64.0028 40.0994 64.4857 40.6996 64.8408 41.4027C65.1959 42.1058 65.3735 42.9297 65.3735 43.8743C65.3735 45.1527 65.0468 46.2784 64.3934 47.2514C63.74 48.2173 62.7954 48.9737 61.5596 49.5206C60.3309 50.0604 58.843 50.3303 57.0958 50.3303C55.3983 50.3303 53.9246 50.0675 52.6746 49.5419C51.4317 49.0163 50.4587 48.2493 49.7556 47.2408C49.0596 46.2322 48.6831 45.0036 48.6263 43.5547H52.5148C52.5716 44.3146 52.806 44.9467 53.218 45.451C53.6299 45.9553 54.1661 46.3317 54.8266 46.5803C55.4942 46.8288 56.24 46.9531 57.0638 46.9531C57.9232 46.9531 58.676 46.8253 59.3224 46.5696C59.9758 46.3068 60.4871 45.9446 60.8564 45.483C61.2258 45.0142 61.414 44.4673 61.4211 43.8423C61.414 43.2741 61.2471 42.8054 60.9204 42.4361C60.5937 42.0597 60.1356 41.7472 59.5461 41.4986C58.9637 41.2429 58.2819 41.0156 57.5006 40.8168L55.0184 40.1776C53.2215 39.7159 51.801 39.0163 50.757 38.0788C49.7201 37.1342 49.2016 35.8807 49.2016 34.3182C49.2016 33.0327 49.5496 31.907 50.2456 30.9411C50.9488 29.9751 51.904 29.2259 53.1114 28.6932C54.3188 28.1534 55.686 27.8835 57.213 27.8835C58.7613 27.8835 60.1178 28.1534 61.2826 28.6932C62.4545 29.2259 63.3742 29.968 64.0418 30.9197C64.7094 31.8643 65.0539 32.951 65.0752 34.1797H61.2719ZM68.7267 50V33.6364H72.4127V36.4169H72.6045C72.9454 35.4794 73.51 34.7479 74.2984 34.2223C75.0867 33.6896 76.0278 33.4233 77.1215 33.4233C78.2295 33.4233 79.1634 33.6932 79.9234 34.233C80.6904 34.7656 81.2302 35.4936 81.5427 36.4169H81.7132C82.0754 35.5078 82.6862 34.7834 83.5455 34.2436C84.412 33.6967 85.4383 33.4233 86.6244 33.4233C88.1301 33.4233 89.3588 33.8991 90.3105 34.8509C91.2622 35.8026 91.738 37.1911 91.738 39.0163V50H87.8708V39.6129C87.8708 38.5973 87.6009 37.8551 87.0612 37.3864C86.5214 36.9105 85.8609 36.6726 85.0796 36.6726C84.1492 36.6726 83.4213 36.9638 82.8957 37.5462C82.3772 38.1214 82.118 38.8707 82.118 39.794V50H78.336V39.4531C78.336 38.608 78.0803 37.9332 77.569 37.429C77.0647 36.9247 76.4042 36.6726 75.5874 36.6726C75.0335 36.6726 74.5292 36.8146 74.0747 37.0987C73.6201 37.3757 73.2579 37.7699 72.988 38.2812C72.7181 38.7855 72.5832 39.375 72.5832 40.0497V50H68.7267ZM100.359 50.3303C99.3224 50.3303 98.3884 50.1456 97.5574 49.7763C96.7336 49.3999 96.0802 48.8459 95.5972 48.1143C95.1214 47.3828 94.8834 46.4808 94.8834 45.4084C94.8834 44.4851 95.0539 43.7216 95.3948 43.1179C95.7357 42.5142 96.2009 42.0312 96.7904 41.669C97.3799 41.3068 98.0439 41.0334 98.7826 40.8487C99.5283 40.657 100.299 40.5185 101.094 40.4332C102.053 40.3338 102.831 40.245 103.427 40.1669C104.024 40.0817 104.457 39.9538 104.727 39.7834C105.004 39.6058 105.143 39.3324 105.143 38.9631V38.8991C105.143 38.0966 104.905 37.4751 104.429 37.0348C103.953 36.5945 103.268 36.3743 102.373 36.3743C101.428 36.3743 100.679 36.5803 100.125 36.9922C99.578 37.4041 99.2087 37.8906 99.017 38.4517L95.4161 37.9403C95.7002 36.946 96.1689 36.1151 96.8224 35.4474C97.4758 34.7727 98.2748 34.2685 99.2194 33.9347C100.164 33.5938 101.208 33.4233 102.351 33.4233C103.14 33.4233 103.925 33.5156 104.706 33.7003C105.487 33.8849 106.201 34.1903 106.847 34.6165C107.494 35.0355 108.012 35.6072 108.403 36.3317C108.8 37.0561 108.999 37.9616 108.999 39.0483V50H105.292V47.7521H105.164C104.93 48.2067 104.599 48.6328 104.173 49.0305C103.754 49.4212 103.225 49.7372 102.586 49.9787C101.954 50.2131 101.212 50.3303 100.359 50.3303ZM101.361 47.4964C102.135 47.4964 102.806 47.3437 103.374 47.0384C103.942 46.7259 104.379 46.3139 104.685 45.8026C104.997 45.2912 105.153 44.7337 105.153 44.13V42.2017C105.033 42.3011 104.827 42.3935 104.535 42.4787C104.251 42.5639 103.932 42.6385 103.577 42.7024C103.222 42.7663 102.87 42.8232 102.522 42.8729C102.174 42.9226 101.872 42.9652 101.616 43.0007C101.041 43.0788 100.526 43.2067 100.072 43.3842C99.6171 43.5618 99.2584 43.8104 98.9957 44.13C98.7329 44.4425 98.6015 44.8473 98.6015 45.3445C98.6015 46.0547 98.8607 46.5909 99.3792 46.9531C99.8976 47.3153 100.558 47.4964 101.361 47.4964ZM112.877 50V33.6364H116.616V36.3636H116.787C117.085 35.419 117.597 34.6911 118.321 34.1797C119.052 33.6612 119.887 33.402 120.824 33.402C121.038 33.402 121.275 33.4126 121.538 33.4339C121.808 33.4482 122.032 33.473 122.209 33.5085V37.0561C122.046 36.9993 121.787 36.9496 121.432 36.907C121.084 36.8572 120.746 36.8324 120.42 36.8324C119.717 36.8324 119.084 36.9851 118.523 37.2905C117.969 37.5888 117.533 38.0043 117.213 38.5369C116.893 39.0696 116.734 39.6839 116.734 40.38V50H112.877ZM133.822 33.6364V36.6193H124.415V33.6364H133.822ZM126.737 29.7159H130.594V45.0781C130.594 45.5966 130.672 45.9943 130.828 46.2713C130.991 46.5412 131.204 46.7259 131.467 46.8253C131.73 46.9247 132.021 46.9744 132.341 46.9744C132.582 46.9744 132.802 46.9567 133.001 46.9212C133.207 46.8857 133.364 46.8537 133.47 46.8253L134.12 49.8402C133.914 49.9112 133.619 49.9893 133.236 50.0746C132.859 50.1598 132.398 50.2095 131.851 50.2237C130.885 50.2521 130.015 50.1065 129.241 49.7869C128.467 49.4602 127.852 48.956 127.398 48.2741C126.95 47.5923 126.73 46.7401 126.737 45.7173V29.7159ZM137.569 28.1818H142.406L148.883 43.9915H149.139L155.616 28.1818H160.453V50H156.66V35.0107H156.457L150.428 49.9361H147.594L141.564 34.9787H141.362V50H137.569V28.1818ZM171.724 50.3196C170.126 50.3196 168.741 49.968 167.569 49.2649C166.397 48.5618 165.488 47.5781 164.842 46.3139C164.203 45.0497 163.883 43.5724 163.883 41.8821C163.883 40.1918 164.203 38.7109 164.842 37.4396C165.488 36.1683 166.397 35.1811 167.569 34.478C168.741 33.7749 170.126 33.4233 171.724 33.4233C173.322 33.4233 174.707 33.7749 175.879 34.478C177.051 35.1811 177.956 36.1683 178.595 37.4396C179.242 38.7109 179.565 40.1918 179.565 41.8821C179.565 43.5724 179.242 45.0497 178.595 46.3139C177.956 47.5781 177.051 48.5618 175.879 49.2649C174.707 49.968 173.322 50.3196 171.724 50.3196ZM171.745 47.2301C172.612 47.2301 173.336 46.9922 173.918 46.5163C174.501 46.0334 174.934 45.3871 175.218 44.5774C175.509 43.7678 175.655 42.8658 175.655 41.8714C175.655 40.87 175.509 39.9645 175.218 39.1548C174.934 38.3381 174.501 37.6882 173.918 37.2053C173.336 36.7223 172.612 36.4808 171.745 36.4808C170.857 36.4808 170.119 36.7223 169.529 37.2053C168.947 37.6882 168.51 38.3381 168.219 39.1548C167.935 39.9645 167.793 40.87 167.793 41.8714C167.793 42.8658 167.935 43.7678 168.219 44.5774C168.51 45.3871 168.947 46.0334 169.529 46.5163C170.119 46.9922 170.857 47.2301 171.745 47.2301ZM186.695 40.4119V50H182.838V33.6364H186.524V36.4169H186.716C187.092 35.5007 187.692 34.7727 188.516 34.233C189.347 33.6932 190.373 33.4233 191.595 33.4233C192.724 33.4233 193.708 33.6648 194.546 34.1477C195.391 34.6307 196.045 35.3303 196.506 36.2464C196.975 37.1626 197.206 38.2741 197.199 39.581V50H193.342V40.1776C193.342 39.0838 193.058 38.228 192.49 37.6101C191.929 36.9922 191.151 36.6832 190.157 36.6832C189.482 36.6832 188.882 36.8324 188.356 37.1307C187.838 37.4219 187.43 37.8445 187.131 38.3984C186.84 38.9524 186.695 39.6236 186.695 40.4119ZM208.364 50.3196C206.723 50.3196 205.306 49.9787 204.113 49.2969C202.927 48.608 202.014 47.6349 201.375 46.3778C200.736 45.1136 200.416 43.6257 200.416 41.9141C200.416 40.2308 200.736 38.7536 201.375 37.4822C202.021 36.2038 202.923 35.2095 204.081 34.4993C205.239 33.782 206.599 33.4233 208.161 33.4233C209.17 33.4233 210.121 33.5866 211.016 33.9134C211.918 34.233 212.714 34.7301 213.403 35.4048C214.099 36.0795 214.646 36.9389 215.043 37.983C215.441 39.0199 215.64 40.2557 215.64 41.6903V42.8729H202.227V40.2734H211.943C211.936 39.5348 211.776 38.8778 211.464 38.3026C211.151 37.7202 210.714 37.2621 210.153 36.9283C209.599 36.5945 208.953 36.4276 208.214 36.4276C207.426 36.4276 206.734 36.6193 206.137 37.0028C205.54 37.3793 205.075 37.8764 204.741 38.4943C204.415 39.1051 204.248 39.7763 204.241 40.5078V42.777C204.241 43.7287 204.415 44.5455 204.763 45.2273C205.111 45.902 205.597 46.4205 206.222 46.7827C206.847 47.1378 207.579 47.3153 208.417 47.3153C208.978 47.3153 209.486 47.2372 209.94 47.081C210.395 46.9176 210.789 46.6797 211.123 46.3672C211.457 46.0547 211.709 45.6676 211.879 45.206L215.48 45.6108C215.253 46.5625 214.82 47.3935 214.18 48.1037C213.548 48.8068 212.739 49.3537 211.751 49.7443C210.764 50.1278 209.635 50.3196 208.364 50.3196ZM220.831 56.1364C220.305 56.1364 219.819 56.0938 219.371 56.0085C218.931 55.9304 218.579 55.8381 218.316 55.7315L219.211 52.7273C219.772 52.8906 220.273 52.9688 220.714 52.9616C221.154 52.9545 221.541 52.8161 221.875 52.5462C222.216 52.2834 222.503 51.843 222.738 51.2251L223.068 50.3409L217.134 33.6364H221.225L224.996 45.9943H225.167L228.949 33.6364H233.05L226.498 51.9815C226.193 52.848 225.788 53.5902 225.284 54.2081C224.78 54.8331 224.162 55.3089 223.43 55.6357C222.706 55.9695 221.839 56.1364 220.831 56.1364Z" fill="black"/>
<path d="M24.9994 18.0715C21.5395 18.0715 18.6 19.109 16.68 20.7352V23.76H33.32V20.7352C31.4 19.109 28.4598 18.0715 24.9994 18.0715ZM40.2768 16.5191L24.959 9.23999L9.64767 16.5191L12.2 17.7236V19.5762C11.56 19.7129 11.5581 20.0587 11.5581 20.4699C11.5581 20.7128 11.6362 20.9972 11.7846 21.1675L10.9091 23.1H14.0323L13.1645 21.1662C13.3104 20.9959 13.4301 20.7451 13.4301 20.5022C13.4301 20.0917 12.84 19.7122 12.84 19.5756V18.0332L16.04 19.5155V19.3842C17.96 17.6623 21.3334 16.5693 24.9987 16.5693C28.6653 16.5693 32.04 17.6623 33.96 19.3842V19.5155L40.2768 16.5191Z" fill="black"/>
<path fill-rule="evenodd" clip-rule="evenodd" d="M26.4107 41.3214V50.4286C29.6155 50.1408 30.9643 48.3458 30.9643 45.9752C30.9643 43.692 29.9151 42.3414 26.4107 41.3214ZM23.6786 36.7678V28.5714C20.6978 28.9494 19.125 30.6934 19.125 32.6059C19.125 34.5184 20.3672 35.9273 23.6786 36.7678ZM26.265 37.439L27.2413 37.6913C32.589 38.9745 35.5179 41.2458 35.5179 45.7256C35.5179 50.8785 31.4506 53.8018 26.265 54.1807V57.7143H23.9673V54.1807C18.8017 53.7809 14.7144 50.7737 14.5714 45.7256H18.7807C19.1469 48.1864 20.6932 49.9951 23.9673 50.3521V41.1839L23.133 40.9735C17.9675 39.7322 15.1816 37.3343 15.1816 33.0649C15.1816 28.3538 18.8427 25.2409 23.9673 24.8411V21.2857H26.265V24.8402C31.3486 25.261 35.0297 28.4157 35.1927 33.1906H30.9625C30.6984 30.5404 28.8678 29.0049 26.265 28.668V37.439Z" fill="black"/>
</svg>
